Coordinates
version=1
nRows=14
nColumns=24
inDegrees=yes

Units are S.I. units (second, meters, Newtons, ...)
Angles are in degrees.

endheader
time	pelvis_tilt	pelvis_list	pelvis_rotation	pelvis_tx	pelvis_ty	pelvis_tz	hip_flexion_r	hip_adduction_r	hip_rotation_r	knee_angle_r	ankle_angle_r	subtalar_angle_r	mtp_angle_r	hip_flexion_l	hip_adduction_l	hip_rotation_l	knee_angle_l	ankle_angle_l	subtalar_angle_l	mtp_angle_l	lumbar_extension	lumbar_bending	lumbar_rotation
      0.62500000	      1.02575391	      8.91835164	     -1.43970816	     -0.81512039	      1.04793668	      0.30686257	     24.13711178	     -4.65883031	    -11.38172577	      1.73439660	      6.63181281	      1.69944309	      0.10618513	    -21.79105362	     13.86259787	     -1.42913901	     -1.43866586	      1.43451449	     -3.42732472	      0.21480755	      3.67298099	     -7.18240073	     -0.77005072
      0.62916667	      1.02704275	      8.88320657	     -1.33101744	     -0.80906007	      1.04783610	      0.30664424	     24.00655372	     -4.66189571	    -11.19372954	      1.34663984	      6.66046319	      1.69232214	      0.11078859	    -21.92659004	     13.76904100	     -1.37108280	     -1.84140949	      1.34577432	     -3.41941269	      0.22353822	      3.73465216	     -7.09366492	     -0.79708451
      0.63333333	      1.04637196	      8.83777659	     -1.21105440	     -0.80296319	      1.04779593	      0.30641671	     23.82829470	     -4.66256657	    -10.91417047	      0.97618516	      6.75758751	      1.64030570	      0.11762018	    -22.07354960	     13.65819416	     -1.30401257	     -2.25296507	      1.15363347	     -3.39053637	      0.23699685	      3.78946197	     -6.95447867	     -0.84428921
      0.63750000	      1.11038118	      8.69166044	     -1.19694291	     -0.79657846	      1.04778432	      0.30639857	     23.54185918	     -4.51068237	    -10.34989589	      0.68008648	      7.06519682	      1.25549207	      0.13593669	    -22.30602718	     13.46581918	     -1.25870690	     -2.55607332	      0.57815420	     -3.32053284	      0.29080373	      3.70503155	     -6.73699231	     -0.99020743
      0.64166667	      1.30172241	      8.59702379	     -1.22636398	     -0.79048781	      1.04794357	      0.30652129	     23.14997670	     -4.39598232	     -9.74027408	      0.38130969	      6.94463923	      0.43395533	      0.16126540	    -22.59003588	     13.33657169	     -1.48580082	     -2.98972966	      0.15040488	     -3.34432208	      0.44245651	      3.53380355	     -6.62467396	     -1.14986769
      0.64583333	      1.28779106	      8.51294105	     -1.08127053	     -0.78415257	      1.04796652	      0.30639714	     22.93222448	     -4.35050312	     -9.38105129	      0.09725246	      6.88464104	      0.26856647	      0.17530557	    -22.67056746	     13.15631979	     -1.44135273	     -3.46932869	     -0.03965077	     -3.25075081	      0.51998341	      3.55947438	     -6.50124208	     -1.17349053
      0.65000000	      1.29855638	      8.47977561	     -0.98096352	     -0.77798022	      1.04797481	      0.30623333	     22.75054316	     -4.35295294	     -9.20705259	     -0.27268775	      6.83876049	      0.22804579	      0.17901441	    -22.74286094	     13.05626059	     -1.46007357	     -3.98917180	     -0.16908505	     -3.23959502	      0.53819317	      3.64631385	     -6.41186836	     -1.18415563
      0.65416667	      1.31102368	      8.29302699	     -0.88975851	     -0.77135035	      1.04807477	      0.30628446	     22.43582800	     -4.16851364	     -8.76298139	     -0.43659078	      6.65238852	     -0.15823646	      0.19417758	    -22.84286892	     12.77379591	     -1.64551885	     -4.44137254	     -0.89443426	     -3.03266648	      0.63707868	      3.65087630	     -6.16106590	     -1.26599110
      0.65833333	      1.53240772	      8.17179044	     -0.94548122	     -0.76518354	      1.04835477	      0.30662383	     21.94600604	     -4.00292639	     -8.01579560	     -0.59495133	      6.20232065	     -1.35136855	      0.25555661	    -23.09284714	     12.59736026	     -2.01277666	     -4.98529614	     -1.15580448	     -2.74349833	      1.08560600	      3.46511846	     -5.99548068	     -1.34231690
      0.66250000	      1.48810391	      8.04659483	     -0.78486085	     -0.75866167	      1.04846005	      0.30653242	     21.71889719	     -3.91276634	     -7.88098651	     -0.79858483	      6.00137495	     -1.36707699	      0.26991583	    -23.06829062	     12.35606384	     -2.13893255	     -5.57613987	     -1.55938824	     -2.63375560	      1.17323297	      3.54161809	     -5.85212057	     -1.35093840
      0.66666667	      1.48991871	      7.90295048	     -0.67974952	     -0.75212567	      1.04862399	      0.30651435	     21.44082710	     -3.78520984	     -7.72861054	     -0.96344448	      5.64074859	     -1.49165806	      0.28683876	    -23.07263903	     12.11255418	     -2.34826971	     -6.18075241	     -2.10363938	     -2.47380935	      1.28903944	      3.62090290	     -5.63615444	     -1.38902318
      0.67083333	      1.51136150	      7.73993538	     -0.58710084	     -0.74556743	      1.04883950	      0.30653867	     21.13119151	     -3.63342736	     -7.57375352	     -1.09858755	      5.20512844	     -1.69338116	      0.30686100	    -23.07490332	     11.84540853	     -2.62041238	     -6.81825722	     -2.64431738	     -2.30064326	      1.42821831	      3.66855999	     -5.41484690	     -1.43562624
      0.67500000	      1.60422083	      7.58861440	     -0.57624226	     -0.73910694	      1.04910916	      0.30663982	     20.77530871	     -3.47210449	     -7.40298825	     -1.24497739	      4.60930767	     -2.08088593	      0.34014502	    -23.12899738	     11.61936628	     -2.94241739	     -7.46497952	     -3.27221669	     -2.02650982	      1.65649103	      3.73066556	     -5.13441087	     -1.50084912
      0.67916667	      1.68311633	      7.40182570	     -0.48906826	     -0.73256118	      1.04945986	      0.30673734	     20.38470581	     -3.28974120	     -7.23475145	     -1.31742389	      4.01866491	     -2.47682748	      0.38360837	    -23.14055047	     11.31171060	     -3.29169729	     -8.18007124	     -3.84252614	     -1.76829737	      1.93435879	      3.71186646	     -4.88751478	     -1.55668670
